<mxfile host="65bd71144e">
    <diagram name="PÃ¡gina-1" id="THWm4UdsPq4UFAy5N0O1">
        <mxGraphModel dx="1386" dy="573" grid="0" gridSize="10" guides="1" tooltips="1" connect="1" arrows="1" fold="1" page="0" pageScale="1" pageWidth="850" pageHeight="1100" background="none" math="0" shadow="0">
            <root>
                <mxCell id="0"/>
                <mxCell id="1" parent="0"/>
                <mxCell id="7wZIkeDhMsbNzxBtwnGF-5" style="edgeStyle=orthogonalEdgeStyle;rounded=0;orthogonalLoop=1;jettySize=auto;html=1;entryX=0;entryY=0.5;entryDx=0;entryDy=0;startArrow=none;startFill=0;endArrow=ERmany;endFill=0;exitX=0.5;exitY=1;exitDx=0;exitDy=0;" parent="1" source="7wZIkeDhMsbNzxBtwnGF-1" target="7wZIkeDhMsbNzxBtwnGF-3" edge="1">
                    <mxGeometry relative="1" as="geometry">
                        <mxPoint x="230" y="260" as="sourcePoint"/>
                    </mxGeometry>
                </mxCell>
                <mxCell id="JjdFlTZayRU_LrBaCwq4-5" value="1" style="edgeLabel;html=1;align=center;verticalAlign=middle;resizable=0;points=[];" parent="7wZIkeDhMsbNzxBtwnGF-5" vertex="1" connectable="0">
                    <mxGeometry x="-0.8713" y="-3" relative="1" as="geometry">
                        <mxPoint x="-7" y="-5" as="offset"/>
                    </mxGeometry>
                </mxCell>
                <mxCell id="JjdFlTZayRU_LrBaCwq4-7" value="M" style="edgeLabel;html=1;align=center;verticalAlign=middle;resizable=0;points=[];" parent="7wZIkeDhMsbNzxBtwnGF-5" vertex="1" connectable="0">
                    <mxGeometry x="0.8192" y="1" relative="1" as="geometry">
                        <mxPoint x="12" y="-9" as="offset"/>
                    </mxGeometry>
                </mxCell>
                <mxCell id="KmHYJNflycNd48DQ60Tj-3" style="edgeStyle=orthogonalEdgeStyle;rounded=0;orthogonalLoop=1;jettySize=auto;html=1;endArrow=ERmany;endFill=0;startArrow=none;startFill=0;" parent="1" source="7wZIkeDhMsbNzxBtwnGF-1" target="7wZIkeDhMsbNzxBtwnGF-2" edge="1">
                    <mxGeometry relative="1" as="geometry"/>
                </mxCell>
                <mxCell id="JjdFlTZayRU_LrBaCwq4-6" value="M" style="edgeLabel;html=1;align=center;verticalAlign=middle;resizable=0;points=[];" parent="KmHYJNflycNd48DQ60Tj-3" vertex="1" connectable="0">
                    <mxGeometry x="0.8762" y="1" relative="1" as="geometry">
                        <mxPoint x="12" y="11" as="offset"/>
                    </mxGeometry>
                </mxCell>
                <mxCell id="JjdFlTZayRU_LrBaCwq4-9" value="1" style="edgeLabel;html=1;align=center;verticalAlign=middle;resizable=0;points=[];" parent="KmHYJNflycNd48DQ60Tj-3" vertex="1" connectable="0">
                    <mxGeometry x="-0.9166" y="2" relative="1" as="geometry">
                        <mxPoint x="-5" y="12" as="offset"/>
                    </mxGeometry>
                </mxCell>
                <mxCell id="7wZIkeDhMsbNzxBtwnGF-1" value="Users" style="rounded=0;whiteSpace=wrap;html=1;fillColor=#d5e8d4;strokeColor=#82b366;fontColor=#000000;" parent="1" vertex="1">
                    <mxGeometry x="150" y="180" width="80" height="40" as="geometry"/>
                </mxCell>
                <mxCell id="JjdFlTZayRU_LrBaCwq4-3" style="edgeStyle=orthogonalEdgeStyle;rounded=0;orthogonalLoop=1;jettySize=auto;html=1;entryX=1;entryY=0.5;entryDx=0;entryDy=0;endArrow=ERmany;endFill=0;exitX=0.5;exitY=1;exitDx=0;exitDy=0;" parent="1" source="7wZIkeDhMsbNzxBtwnGF-2" target="7wZIkeDhMsbNzxBtwnGF-3" edge="1">
                    <mxGeometry relative="1" as="geometry">
                        <Array as="points">
                            <mxPoint x="630" y="280"/>
                        </Array>
                    </mxGeometry>
                </mxCell>
                <mxCell id="JjdFlTZayRU_LrBaCwq4-4" value="1" style="edgeLabel;html=1;align=center;verticalAlign=middle;resizable=0;points=[];" parent="JjdFlTZayRU_LrBaCwq4-3" vertex="1" connectable="0">
                    <mxGeometry x="-0.6655" y="-1" relative="1" as="geometry">
                        <mxPoint x="-9" y="-30" as="offset"/>
                    </mxGeometry>
                </mxCell>
                <mxCell id="JjdFlTZayRU_LrBaCwq4-8" value="M" style="edgeLabel;html=1;align=center;verticalAlign=middle;resizable=0;points=[];" parent="JjdFlTZayRU_LrBaCwq4-3" vertex="1" connectable="0">
                    <mxGeometry x="0.8524" y="-1" relative="1" as="geometry">
                        <mxPoint x="-8" y="-9" as="offset"/>
                    </mxGeometry>
                </mxCell>
                <mxCell id="7wZIkeDhMsbNzxBtwnGF-2" value="Products" style="rounded=0;whiteSpace=wrap;html=1;fillColor=#f8cecc;strokeColor=#b85450;fontColor=#000000;" parent="1" vertex="1">
                    <mxGeometry x="590" y="180" width="80" height="40" as="geometry"/>
                </mxCell>
                <mxCell id="7wZIkeDhMsbNzxBtwnGF-3" value="Favourites" style="rounded=0;whiteSpace=wrap;html=1;fillColor=#dae8fc;strokeColor=#6c8ebf;fontColor=#000000;" parent="1" vertex="1">
                    <mxGeometry x="370" y="260" width="80" height="40" as="geometry"/>
                </mxCell>
                <mxCell id="7wZIkeDhMsbNzxBtwnGF-24" style="rounded=0;orthogonalLoop=1;jettySize=auto;html=1;exitX=1;exitY=1;exitDx=0;exitDy=0;endArrow=none;endFill=0;" parent="1" source="7wZIkeDhMsbNzxBtwnGF-13" edge="1">
                    <mxGeometry relative="1" as="geometry">
                        <mxPoint x="150" y="180" as="targetPoint"/>
                    </mxGeometry>
                </mxCell>
                <mxCell id="7wZIkeDhMsbNzxBtwnGF-13" value="firstName" style="ellipse;whiteSpace=wrap;html=1;" parent="1" vertex="1">
                    <mxGeometry x="10" y="110" width="70" height="40" as="geometry"/>
                </mxCell>
                <mxCell id="7wZIkeDhMsbNzxBtwnGF-20" style="rounded=0;orthogonalLoop=1;jettySize=auto;html=1;entryX=0;entryY=0.25;entryDx=0;entryDy=0;startArrow=none;startFill=0;endArrow=none;endFill=0;exitX=1;exitY=0.5;exitDx=0;exitDy=0;" parent="1" source="7wZIkeDhMsbNzxBtwnGF-14" target="7wZIkeDhMsbNzxBtwnGF-1" edge="1">
                    <mxGeometry relative="1" as="geometry"/>
                </mxCell>
                <mxCell id="7wZIkeDhMsbNzxBtwnGF-14" value="&lt;u&gt;&lt;b&gt;id&lt;/b&gt;&lt;/u&gt;" style="ellipse;whiteSpace=wrap;html=1;" parent="1" vertex="1">
                    <mxGeometry x="10" y="160" width="70" height="40" as="geometry"/>
                </mxCell>
                <mxCell id="7wZIkeDhMsbNzxBtwnGF-25" style="rounded=0;orthogonalLoop=1;jettySize=auto;html=1;endArrow=none;endFill=0;exitX=0.62;exitY=0.982;exitDx=0;exitDy=0;exitPerimeter=0;" parent="1" source="7wZIkeDhMsbNzxBtwnGF-15" edge="1">
                    <mxGeometry relative="1" as="geometry">
                        <mxPoint x="125" y="115" as="sourcePoint"/>
                        <mxPoint x="170" y="180" as="targetPoint"/>
                    </mxGeometry>
                </mxCell>
                <mxCell id="7wZIkeDhMsbNzxBtwnGF-15" value="lastName" style="ellipse;whiteSpace=wrap;html=1;" parent="1" vertex="1">
                    <mxGeometry x="50" y="70" width="70" height="40" as="geometry"/>
                </mxCell>
                <mxCell id="7wZIkeDhMsbNzxBtwnGF-17" value="email" style="ellipse;whiteSpace=wrap;html=1;" parent="1" vertex="1">
                    <mxGeometry x="200" y="65" width="70" height="40" as="geometry"/>
                </mxCell>
                <mxCell id="7wZIkeDhMsbNzxBtwnGF-27" style="rounded=0;orthogonalLoop=1;jettySize=auto;html=1;entryX=1;entryY=0;entryDx=0;entryDy=0;endArrow=none;endFill=0;" parent="1" source="7wZIkeDhMsbNzxBtwnGF-18" target="7wZIkeDhMsbNzxBtwnGF-1" edge="1">
                    <mxGeometry relative="1" as="geometry">
                        <mxPoint x="320" y="150" as="sourcePoint"/>
                    </mxGeometry>
                </mxCell>
                <mxCell id="7wZIkeDhMsbNzxBtwnGF-18" value="password" style="ellipse;whiteSpace=wrap;html=1;" parent="1" vertex="1">
                    <mxGeometry x="270" y="90" width="70" height="40" as="geometry"/>
                </mxCell>
                <mxCell id="7wZIkeDhMsbNzxBtwnGF-26" style="rounded=0;orthogonalLoop=1;jettySize=auto;html=1;exitX=0.5;exitY=1;exitDx=0;exitDy=0;entryX=0.75;entryY=0;entryDx=0;entryDy=0;endArrow=none;endFill=0;" parent="1" source="7wZIkeDhMsbNzxBtwnGF-17" target="7wZIkeDhMsbNzxBtwnGF-1" edge="1">
                    <mxGeometry relative="1" as="geometry">
                        <mxPoint x="230.48000000000002" y="180" as="targetPoint"/>
                    </mxGeometry>
                </mxCell>
                <mxCell id="7wZIkeDhMsbNzxBtwnGF-35" style="rounded=0;orthogonalLoop=1;jettySize=auto;html=1;entryX=0;entryY=0;entryDx=0;entryDy=0;endArrow=none;endFill=0;" parent="1" source="7wZIkeDhMsbNzxBtwnGF-28" target="7wZIkeDhMsbNzxBtwnGF-2" edge="1">
                    <mxGeometry relative="1" as="geometry"/>
                </mxCell>
                <mxCell id="7wZIkeDhMsbNzxBtwnGF-28" value="&lt;u&gt;&lt;b&gt;id&lt;/b&gt;&lt;/u&gt;" style="ellipse;whiteSpace=wrap;html=1;" parent="1" vertex="1">
                    <mxGeometry x="455" y="130" width="70" height="40" as="geometry"/>
                </mxCell>
                <mxCell id="7wZIkeDhMsbNzxBtwnGF-36" style="rounded=0;orthogonalLoop=1;jettySize=auto;html=1;entryX=0.168;entryY=-0.018;entryDx=0;entryDy=0;endArrow=none;endFill=0;entryPerimeter=0;" parent="1" source="7wZIkeDhMsbNzxBtwnGF-30" target="7wZIkeDhMsbNzxBtwnGF-2" edge="1">
                    <mxGeometry relative="1" as="geometry"/>
                </mxCell>
                <mxCell id="7wZIkeDhMsbNzxBtwnGF-30" value="name" style="ellipse;whiteSpace=wrap;html=1;" parent="1" vertex="1">
                    <mxGeometry x="500" y="90" width="70" height="40" as="geometry"/>
                </mxCell>
                <mxCell id="7wZIkeDhMsbNzxBtwnGF-37" style="rounded=0;orthogonalLoop=1;jettySize=auto;html=1;endArrow=none;endFill=0;" parent="1" source="7wZIkeDhMsbNzxBtwnGF-31" target="7wZIkeDhMsbNzxBtwnGF-2" edge="1">
                    <mxGeometry relative="1" as="geometry"/>
                </mxCell>
                <mxCell id="7wZIkeDhMsbNzxBtwnGF-31" value="price" style="ellipse;whiteSpace=wrap;html=1;" parent="1" vertex="1">
                    <mxGeometry x="660" y="80" width="70" height="40" as="geometry"/>
                </mxCell>
                <mxCell id="7wZIkeDhMsbNzxBtwnGF-40" style="rounded=0;orthogonalLoop=1;jettySize=auto;html=1;entryX=1;entryY=0;entryDx=0;entryDy=0;endArrow=none;endFill=0;" parent="1" source="7wZIkeDhMsbNzxBtwnGF-32" target="7wZIkeDhMsbNzxBtwnGF-2" edge="1">
                    <mxGeometry relative="1" as="geometry"/>
                </mxCell>
                <mxCell id="7wZIkeDhMsbNzxBtwnGF-32" value="URLImage" style="ellipse;whiteSpace=wrap;html=1;" parent="1" vertex="1">
                    <mxGeometry x="730" y="110" width="70" height="40" as="geometry"/>
                </mxCell>
                <mxCell id="7wZIkeDhMsbNzxBtwnGF-55" style="rounded=0;orthogonalLoop=1;jettySize=auto;html=1;entryX=0;entryY=1;entryDx=0;entryDy=0;endArrow=none;endFill=0;" parent="1" source="7wZIkeDhMsbNzxBtwnGF-41" target="7wZIkeDhMsbNzxBtwnGF-3" edge="1">
                    <mxGeometry relative="1" as="geometry">
                        <mxPoint x="425" y="310" as="targetPoint"/>
                    </mxGeometry>
                </mxCell>
                <mxCell id="7wZIkeDhMsbNzxBtwnGF-41" value="&lt;u&gt;&lt;b&gt;id&lt;/b&gt;&lt;/u&gt;" style="ellipse;whiteSpace=wrap;html=1;" parent="1" vertex="1">
                    <mxGeometry x="300" y="320" width="70" height="40" as="geometry"/>
                </mxCell>
                <mxCell id="7wZIkeDhMsbNzxBtwnGF-54" style="rounded=0;orthogonalLoop=1;jettySize=auto;html=1;entryX=0.5;entryY=1;entryDx=0;entryDy=0;endArrow=none;endFill=0;" parent="1" source="7wZIkeDhMsbNzxBtwnGF-42" target="7wZIkeDhMsbNzxBtwnGF-3" edge="1">
                    <mxGeometry relative="1" as="geometry">
                        <mxPoint x="445" y="310" as="targetPoint"/>
                    </mxGeometry>
                </mxCell>
                <mxCell id="7wZIkeDhMsbNzxBtwnGF-42" value="&lt;i&gt;&lt;u&gt;idUser&lt;/u&gt;&lt;/i&gt;" style="ellipse;whiteSpace=wrap;html=1;" parent="1" vertex="1">
                    <mxGeometry x="375" y="330" width="70" height="40" as="geometry"/>
                </mxCell>
                <mxCell id="7wZIkeDhMsbNzxBtwnGF-53" style="rounded=0;orthogonalLoop=1;jettySize=auto;html=1;endArrow=none;endFill=0;entryX=1;entryY=1;entryDx=0;entryDy=0;" parent="1" source="7wZIkeDhMsbNzxBtwnGF-43" target="7wZIkeDhMsbNzxBtwnGF-3" edge="1">
                    <mxGeometry relative="1" as="geometry">
                        <mxPoint x="465" y="310" as="targetPoint"/>
                    </mxGeometry>
                </mxCell>
                <mxCell id="7wZIkeDhMsbNzxBtwnGF-43" value="&lt;i&gt;&lt;u&gt;idProduct&lt;/u&gt;&lt;/i&gt;" style="ellipse;whiteSpace=wrap;html=1;" parent="1" vertex="1">
                    <mxGeometry x="450" y="320" width="70" height="40" as="geometry"/>
                </mxCell>
                <mxCell id="TV28MJ3zpCGGEs3aaqaL-4" style="rounded=0;orthogonalLoop=1;jettySize=auto;html=1;entryX=0.5;entryY=0;entryDx=0;entryDy=0;endArrow=none;endFill=0;" parent="1" source="TV28MJ3zpCGGEs3aaqaL-5" edge="1">
                    <mxGeometry relative="1" as="geometry">
                        <mxPoint x="619.5" y="180" as="targetPoint"/>
                    </mxGeometry>
                </mxCell>
                <mxCell id="TV28MJ3zpCGGEs3aaqaL-5" value="description" style="ellipse;whiteSpace=wrap;html=1;" parent="1" vertex="1">
                    <mxGeometry x="580" y="75" width="70" height="40" as="geometry"/>
                </mxCell>
                <mxCell id="TV28MJ3zpCGGEs3aaqaL-8" style="rounded=0;orthogonalLoop=1;jettySize=auto;html=1;endArrow=none;endFill=0;entryX=0.5;entryY=0;entryDx=0;entryDy=0;" parent="1" source="TV28MJ3zpCGGEs3aaqaL-9" target="7wZIkeDhMsbNzxBtwnGF-1" edge="1">
                    <mxGeometry relative="1" as="geometry">
                        <mxPoint x="90" y="100" as="targetPoint"/>
                    </mxGeometry>
                </mxCell>
                <mxCell id="TV28MJ3zpCGGEs3aaqaL-9" value="avatarURL" style="ellipse;whiteSpace=wrap;html=1;" parent="1" vertex="1">
                    <mxGeometry x="120" y="50" width="70" height="40" as="geometry"/>
                </mxCell>
                <mxCell id="KmHYJNflycNd48DQ60Tj-1" value="&lt;i&gt;&lt;u&gt;idUser&lt;/u&gt;&lt;/i&gt;" style="ellipse;whiteSpace=wrap;html=1;" parent="1" vertex="1">
                    <mxGeometry x="760" y="160" width="70" height="40" as="geometry"/>
                </mxCell>
                <mxCell id="KmHYJNflycNd48DQ60Tj-2" style="rounded=0;orthogonalLoop=1;jettySize=auto;html=1;entryX=1;entryY=0.25;entryDx=0;entryDy=0;endArrow=none;endFill=0;exitX=0;exitY=0.5;exitDx=0;exitDy=0;" parent="1" source="KmHYJNflycNd48DQ60Tj-1" target="7wZIkeDhMsbNzxBtwnGF-2" edge="1">
                    <mxGeometry relative="1" as="geometry">
                        <mxPoint x="749" y="154" as="sourcePoint"/>
                        <mxPoint x="680" y="190" as="targetPoint"/>
                    </mxGeometry>
                </mxCell>
                <mxCell id="JjdFlTZayRU_LrBaCwq4-2" style="rounded=0;orthogonalLoop=1;jettySize=auto;html=1;entryX=1;entryY=0.25;entryDx=0;entryDy=0;startArrow=none;startFill=0;endArrow=none;endFill=0;" parent="1" source="JjdFlTZayRU_LrBaCwq4-1" target="7wZIkeDhMsbNzxBtwnGF-1" edge="1">
                    <mxGeometry relative="1" as="geometry"/>
                </mxCell>
                <mxCell id="JjdFlTZayRU_LrBaCwq4-1" value="role" style="ellipse;whiteSpace=wrap;html=1;" parent="1" vertex="1">
                    <mxGeometry x="310" y="130" width="70" height="40" as="geometry"/>
                </mxCell>
                <mxCell id="66" value="Users" style="shape=table;startSize=30;container=1;collapsible=0;childLayout=tableLayout;shadow=0;fixedRows=0;resizeLast=0;resizeLastRow=0;columnLines=0;rowLines=1;top=1;swimlaneBody=1;fillColor=#dae8fc;strokeColor=#6c8ebf;portConstraintRotation=0;noLabel=0;editable=1;movable=1;resizable=1;rotatable=1;deletable=1;connectable=1;" parent="1" vertex="1">
                    <mxGeometry x="-99" y="335" width="180" height="270" as="geometry"/>
                </mxCell>
                <mxCell id="67" value="" style="shape=tableRow;horizontal=0;startSize=0;swimlaneHead=0;swimlaneBody=0;top=0;left=0;bottom=0;right=0;collapsible=0;dropTarget=0;fillColor=none;points=[[0,0.5],[1,0.5]];portConstraint=eastwest;shadow=0;allowArrows=1;" parent="66" vertex="1">
                    <mxGeometry y="30" width="180" height="40" as="geometry"/>
                </mxCell>
                <mxCell id="68" value="Id ð" style="shape=partialRectangle;html=1;whiteSpace=wrap;connectable=0;overflow=hidden;fillColor=none;top=0;left=0;bottom=0;right=0;pointerEvents=1;shadow=0;" parent="67" vertex="1">
                    <mxGeometry width="92" height="40" as="geometry">
                        <mxRectangle width="92" height="40" as="alternateBounds"/>
                    </mxGeometry>
                </mxCell>
                <mxCell id="101" value="Integer" style="shape=partialRectangle;html=1;whiteSpace=wrap;connectable=0;overflow=hidden;fillColor=none;top=0;left=0;bottom=0;right=0;pointerEvents=1;shadow=0;" vertex="1" parent="67">
                    <mxGeometry x="92" width="88" height="40" as="geometry">
                        <mxRectangle width="88" height="40" as="alternateBounds"/>
                    </mxGeometry>
                </mxCell>
                <mxCell id="69" value="" style="shape=tableRow;horizontal=0;startSize=0;swimlaneHead=0;swimlaneBody=0;top=0;left=0;bottom=0;right=0;collapsible=0;dropTarget=0;fillColor=none;points=[[0,0.5],[1,0.5]];portConstraint=eastwest;shadow=0;" parent="66" vertex="1">
                    <mxGeometry y="70" width="180" height="40" as="geometry"/>
                </mxCell>
                <mxCell id="70" value="firstName&lt;span style=&quot;white-space: pre;&quot;&gt;&#9;&lt;/span&gt;" style="shape=partialRectangle;html=1;whiteSpace=wrap;connectable=0;overflow=hidden;fillColor=none;top=0;left=0;bottom=0;right=0;pointerEvents=1;shadow=0;" parent="69" vertex="1">
                    <mxGeometry width="92" height="40" as="geometry">
                        <mxRectangle width="92" height="40" as="alternateBounds"/>
                    </mxGeometry>
                </mxCell>
                <mxCell id="102" value="Varchar" style="shape=partialRectangle;html=1;whiteSpace=wrap;connectable=0;overflow=hidden;fillColor=none;top=0;left=0;bottom=0;right=0;pointerEvents=1;shadow=0;" vertex="1" parent="69">
                    <mxGeometry x="92" width="88" height="40" as="geometry">
                        <mxRectangle width="88" height="40" as="alternateBounds"/>
                    </mxGeometry>
                </mxCell>
                <mxCell id="71" value="" style="shape=tableRow;horizontal=0;startSize=0;swimlaneHead=0;swimlaneBody=0;top=0;left=0;bottom=0;right=0;collapsible=0;dropTarget=0;fillColor=none;points=[[0,0.5],[1,0.5]];portConstraint=eastwest;shadow=0;" parent="66" vertex="1">
                    <mxGeometry y="110" width="180" height="40" as="geometry"/>
                </mxCell>
                <mxCell id="72" value="lastName" style="shape=partialRectangle;html=1;whiteSpace=wrap;connectable=0;overflow=hidden;fillColor=none;top=0;left=0;bottom=0;right=0;pointerEvents=1;shadow=0;" parent="71" vertex="1">
                    <mxGeometry width="92" height="40" as="geometry">
                        <mxRectangle width="92" height="40" as="alternateBounds"/>
                    </mxGeometry>
                </mxCell>
                <mxCell id="103" value="Varchar" style="shape=partialRectangle;html=1;whiteSpace=wrap;connectable=0;overflow=hidden;fillColor=none;top=0;left=0;bottom=0;right=0;pointerEvents=1;shadow=0;" vertex="1" parent="71">
                    <mxGeometry x="92" width="88" height="40" as="geometry">
                        <mxRectangle width="88" height="40" as="alternateBounds"/>
                    </mxGeometry>
                </mxCell>
                <mxCell id="73" value="" style="shape=tableRow;horizontal=0;startSize=0;swimlaneHead=0;swimlaneBody=0;top=0;left=0;bottom=0;right=0;collapsible=0;dropTarget=0;fillColor=none;points=[[0,0.5],[1,0.5]];portConstraint=eastwest;shadow=0;" parent="66" vertex="1">
                    <mxGeometry y="150" width="180" height="40" as="geometry"/>
                </mxCell>
                <mxCell id="74" value="avatarURL" style="shape=partialRectangle;html=1;whiteSpace=wrap;connectable=0;overflow=hidden;fillColor=none;top=0;left=0;bottom=0;right=0;pointerEvents=1;shadow=0;" parent="73" vertex="1">
                    <mxGeometry width="92" height="40" as="geometry">
                        <mxRectangle width="92" height="40" as="alternateBounds"/>
                    </mxGeometry>
                </mxCell>
                <mxCell id="104" value="Varchar" style="shape=partialRectangle;html=1;whiteSpace=wrap;connectable=0;overflow=hidden;fillColor=none;top=0;left=0;bottom=0;right=0;pointerEvents=1;shadow=0;" vertex="1" parent="73">
                    <mxGeometry x="92" width="88" height="40" as="geometry">
                        <mxRectangle width="88" height="40" as="alternateBounds"/>
                    </mxGeometry>
                </mxCell>
                <mxCell id="75" value="" style="shape=tableRow;horizontal=0;startSize=0;swimlaneHead=0;swimlaneBody=0;top=0;left=0;bottom=0;right=0;collapsible=0;dropTarget=0;fillColor=none;points=[[0,0.5],[1,0.5]];portConstraint=eastwest;shadow=0;" parent="66" vertex="1">
                    <mxGeometry y="190" width="180" height="40" as="geometry"/>
                </mxCell>
                <mxCell id="76" value="email" style="shape=partialRectangle;html=1;whiteSpace=wrap;connectable=0;overflow=hidden;fillColor=none;top=0;left=0;bottom=0;right=0;pointerEvents=1;shadow=0;" parent="75" vertex="1">
                    <mxGeometry width="92" height="40" as="geometry">
                        <mxRectangle width="92" height="40" as="alternateBounds"/>
                    </mxGeometry>
                </mxCell>
                <mxCell id="105" value="Varchar" style="shape=partialRectangle;html=1;whiteSpace=wrap;connectable=0;overflow=hidden;fillColor=none;top=0;left=0;bottom=0;right=0;pointerEvents=1;shadow=0;" vertex="1" parent="75">
                    <mxGeometry x="92" width="88" height="40" as="geometry">
                        <mxRectangle width="88" height="40" as="alternateBounds"/>
                    </mxGeometry>
                </mxCell>
                <mxCell id="77" value="" style="shape=tableRow;horizontal=0;startSize=0;swimlaneHead=0;swimlaneBody=0;top=0;left=0;bottom=0;right=0;collapsible=0;dropTarget=0;fillColor=none;points=[[0,0.5],[1,0.5]];portConstraint=eastwest;shadow=0;" parent="66" vertex="1">
                    <mxGeometry y="230" width="180" height="40" as="geometry"/>
                </mxCell>
                <mxCell id="78" value="password" style="shape=partialRectangle;html=1;whiteSpace=wrap;connectable=0;overflow=hidden;fillColor=none;top=0;left=0;bottom=0;right=0;pointerEvents=1;shadow=0;" parent="77" vertex="1">
                    <mxGeometry width="92" height="40" as="geometry">
                        <mxRectangle width="92" height="40" as="alternateBounds"/>
                    </mxGeometry>
                </mxCell>
                <mxCell id="106" value="Varchar" style="shape=partialRectangle;html=1;whiteSpace=wrap;connectable=0;overflow=hidden;fillColor=none;top=0;left=0;bottom=0;right=0;pointerEvents=1;shadow=0;" vertex="1" parent="77">
                    <mxGeometry x="92" width="88" height="40" as="geometry">
                        <mxRectangle width="88" height="40" as="alternateBounds"/>
                    </mxGeometry>
                </mxCell>
                <mxCell id="80" value="Favourites" style="shape=table;startSize=30;container=1;collapsible=0;childLayout=tableLayout;shadow=0;fixedRows=0;resizeLast=0;resizeLastRow=0;columnLines=0;rowLines=1;top=1;swimlaneBody=1;fillColor=#f8cecc;strokeColor=#b85450;" vertex="1" parent="1">
                    <mxGeometry x="120" y="395" width="180" height="150" as="geometry"/>
                </mxCell>
                <mxCell id="81" value="" style="shape=tableRow;horizontal=0;startSize=0;swimlaneHead=0;swimlaneBody=0;top=0;left=0;bottom=0;right=0;collapsible=0;dropTarget=0;fillColor=none;points=[[0,0.5],[1,0.5]];portConstraint=eastwest;shadow=0;" vertex="1" parent="80">
                    <mxGeometry y="30" width="180" height="40" as="geometry"/>
                </mxCell>
                <mxCell id="82" value="Id ð" style="shape=partialRectangle;html=1;whiteSpace=wrap;connectable=0;overflow=hidden;fillColor=none;top=0;left=0;bottom=0;right=0;pointerEvents=1;shadow=0;" vertex="1" parent="81">
                    <mxGeometry width="90" height="40" as="geometry">
                        <mxRectangle width="90" height="40" as="alternateBounds"/>
                    </mxGeometry>
                </mxCell>
                <mxCell id="137" value="Integer" style="shape=partialRectangle;html=1;whiteSpace=wrap;connectable=0;overflow=hidden;fillColor=none;top=0;left=0;bottom=0;right=0;pointerEvents=1;shadow=0;" vertex="1" parent="81">
                    <mxGeometry x="90" width="90" height="40" as="geometry">
                        <mxRectangle width="90" height="40" as="alternateBounds"/>
                    </mxGeometry>
                </mxCell>
                <mxCell id="83" value="" style="shape=tableRow;horizontal=0;startSize=0;swimlaneHead=0;swimlaneBody=0;top=0;left=0;bottom=0;right=0;collapsible=0;dropTarget=0;fillColor=none;points=[[0,0.5],[1,0.5]];portConstraint=eastwest;shadow=0;" vertex="1" parent="80">
                    <mxGeometry y="70" width="180" height="40" as="geometry"/>
                </mxCell>
                <mxCell id="84" value="idUser" style="shape=partialRectangle;html=1;whiteSpace=wrap;connectable=0;overflow=hidden;fillColor=none;top=0;left=0;bottom=0;right=0;pointerEvents=1;shadow=0;" vertex="1" parent="83">
                    <mxGeometry width="90" height="40" as="geometry">
                        <mxRectangle width="90" height="40" as="alternateBounds"/>
                    </mxGeometry>
                </mxCell>
                <mxCell id="138" value="Integer" style="shape=partialRectangle;html=1;whiteSpace=wrap;connectable=0;overflow=hidden;fillColor=none;top=0;left=0;bottom=0;right=0;pointerEvents=1;shadow=0;" vertex="1" parent="83">
                    <mxGeometry x="90" width="90" height="40" as="geometry">
                        <mxRectangle width="90" height="40" as="alternateBounds"/>
                    </mxGeometry>
                </mxCell>
                <mxCell id="85" value="" style="shape=tableRow;horizontal=0;startSize=0;swimlaneHead=0;swimlaneBody=0;top=0;left=0;bottom=0;right=0;collapsible=0;dropTarget=0;fillColor=none;points=[[0,0.5],[1,0.5]];portConstraint=eastwest;shadow=0;" vertex="1" parent="80">
                    <mxGeometry y="110" width="180" height="40" as="geometry"/>
                </mxCell>
                <mxCell id="86" value="idProduct" style="shape=partialRectangle;html=1;whiteSpace=wrap;connectable=0;overflow=hidden;fillColor=none;top=0;left=0;bottom=0;right=0;pointerEvents=1;shadow=0;" vertex="1" parent="85">
                    <mxGeometry width="90" height="40" as="geometry">
                        <mxRectangle width="90" height="40" as="alternateBounds"/>
                    </mxGeometry>
                </mxCell>
                <mxCell id="139" value="Integer" style="shape=partialRectangle;html=1;whiteSpace=wrap;connectable=0;overflow=hidden;fillColor=none;top=0;left=0;bottom=0;right=0;pointerEvents=1;shadow=0;" vertex="1" parent="85">
                    <mxGeometry x="90" width="90" height="40" as="geometry">
                        <mxRectangle width="90" height="40" as="alternateBounds"/>
                    </mxGeometry>
                </mxCell>
            </root>
        </mxGraphModel>
    </diagram>
</mxfile>